<svg width="400" height="200" viewBox="0 0 400 200" fill="none" xmlns="http://www.w3.org/2000/svg">
  <rect width="400" height="200" rx="20" fill="#1E1E2F"></rect>
  <text x="20" y="40" font-size="22" font-family="Arial" fill="#FFFFFF">Discover Your Sound</text>
  <text x="20" y="70" font-size="16" font-family="Arial" fill="#BBBBBB">A Personal Journey in Music Mastery</text>
  <path d="M100 150 C120 120, 130 180, 150 150 C170 120, 180 180, 200 150 C220 120, 230 180, 250 150 C270 120, 280 180, 300 150" stroke="#00FFAA" stroke-width="3" fill="none"></path>
  <circle cx="80" cy="140" r="20" fill="#4444FF"></circle>
  <circle cx="320" cy="140" r="20" fill="#4444FF"></circle>
  <path d="M80 140 C80 100, 150 100, 150 140" stroke="#4444FF" stroke-width="4" fill="none"></path>
  <path d="M320 140 C320 100, 250 100, 250 140" stroke="#4444FF" stroke-width="4" fill="none"></path>
  <line x1="80" y1="140" x2="320" y2="140" stroke="#4444FF" stroke-width="4"></line>
</svg>
